<svg version="1.1" id="Layer_1" xmlns="http://www.w3.org/2000/svg" xmlns:xlink="http://www.w3.org/1999/xlink" x="0px" y="0px"
	 width="100%" viewBox="0 0 508 491" enable-background="new 0 0 508 491" xml:space="preserve">
<path fill="#FFFFFF" opacity="1.000000" stroke="none" 
	d="
M279.000000,492.000000 
	C186.000015,492.000000 93.500046,492.000000 1.000050,492.000000 
	C1.000033,328.333405 1.000033,164.666794 1.000017,1.000138 
	C170.333237,1.000092 339.666473,1.000092 508.999756,1.000046 
	C508.999847,164.666519 508.999847,328.333038 508.999939,491.999786 
	C432.500000,492.000000 356.000000,492.000000 279.000000,492.000000 
M393.959747,116.040276 
	C393.959747,116.040276 394.067810,116.042946 393.795929,115.603165 
	C393.528595,115.390114 393.261261,115.177055 392.871857,114.510826 
	C392.700867,114.219391 392.448029,114.050522 391.992554,113.342186 
	C391.337860,112.540314 390.683197,111.738441 390.005432,110.994545 
	C390.005432,110.994545 390.067078,110.984879 389.939850,110.448135 
	C389.630554,110.276680 389.321289,110.105225 389.002594,109.997223 
	C389.002594,109.997223 389.066315,109.989807 388.927612,109.459480 
	C388.621552,109.284286 388.315460,109.109085 388.002380,108.997772 
	C388.002380,108.997772 388.066010,108.988930 387.936920,108.453072 
	C387.628479,108.279915 387.320038,108.106758 387.002838,107.997124 
	C387.002838,107.997124 387.066406,107.988693 386.933258,107.456078 
	C386.626587,107.281700 386.319885,107.107330 386.005402,106.994911 
	C386.005402,106.994911 386.063660,106.972404 385.864807,106.327309 
	C384.577637,105.529892 383.290497,104.732475 382.000580,103.997337 
	C382.000580,103.997337 382.060333,103.979591 381.878998,103.326637 
	C380.920563,102.862534 379.962097,102.398430 379.000549,101.996933 
	C379.000549,101.996933 379.061005,101.980370 378.841431,101.361565 
	C378.221802,101.176781 377.602203,100.992004 376.550446,100.275734 
	C375.652252,100.169441 374.754089,100.063148 373.710419,99.717270 
	C373.638916,99.531738 373.511047,99.401627 372.654724,98.919395 
	C367.813660,97.276840 362.972626,95.634293 357.724640,93.194984 
	C347.488403,93.122368 337.252197,93.049751 326.564819,92.235535 
	C313.445496,92.157066 300.326111,92.005722 287.206848,92.014046 
	C250.493149,92.037331 213.779495,92.126602 176.212082,92.044739 
	C172.790756,92.368103 169.370590,92.704201 165.947845,93.011696 
	C161.385391,93.421577 156.820938,93.809212 151.501770,94.305168 
	C144.974274,97.010719 137.990784,98.965164 132.021072,102.589470 
	C121.854401,108.761864 113.428658,116.898987 109.420601,129.418259 
	C104.955109,137.102371 104.934235,145.590485 104.973602,154.084702 
	C105.002975,160.421875 105.065773,166.758865 105.008102,174.016312 
	C105.005402,198.903198 104.985153,223.790131 105.043526,248.676865 
	C105.047035,250.172272 105.678040,251.666199 105.903748,253.572357 
	C105.903748,253.572357 105.994804,253.989410 106.018082,254.928238 
	C106.006241,283.115570 105.928497,311.303253 106.071152,339.489807 
	C106.087822,342.783142 107.321198,346.070312 107.927620,349.706329 
	C107.927620,349.706329 108.035934,350.040955 107.998985,350.811310 
	C108.664513,352.608185 109.330048,354.405060 110.243530,356.796661 
	C110.557549,357.588959 110.871567,358.381226 111.338219,359.601715 
	C111.549377,359.820984 111.774284,360.025085 112.000633,360.681183 
	C112.000633,360.681183 112.131844,361.129700 112.301804,361.584381 
	C112.524139,361.821411 112.760971,362.042969 113.007202,362.711578 
	C113.007202,362.711578 113.153862,363.150330 113.329056,363.565796 
	C113.539803,363.782532 113.767891,363.979156 114.212090,364.712341 
	C114.540474,365.203369 114.868858,365.694397 115.355957,366.584778 
	C115.558990,366.789215 115.777954,366.974823 116.168625,367.578613 
	C116.363083,367.852234 116.628128,367.992523 117.165298,368.685364 
	C119.551003,374.950104 123.733505,379.493652 129.999573,382.005402 
	C129.999573,382.005402 129.944473,382.029266 130.184372,382.734894 
	C131.291962,383.176819 132.399551,383.618744 133.765778,384.396423 
	C134.105728,384.470917 134.328049,384.342377 134.709473,384.719452 
	C136.272095,385.820892 137.721848,387.152130 139.416565,387.984680 
	C147.462585,391.937531 156.072067,392.465302 165.512146,392.006470 
	C165.742523,392.011871 165.972900,392.017303 166.785751,392.591705 
	C185.679733,392.692566 204.573700,392.800903 223.467804,392.856140 
	C224.004730,392.857697 224.543304,392.293579 224.997192,391.984406 
	C224.997192,391.984406 224.987106,392.068207 225.832504,391.892822 
	C226.220596,390.288177 226.937149,388.685333 226.946045,387.078583 
	C227.036713,370.707886 227.012177,354.336517 227.110474,337.577057 
	C227.110474,337.577057 226.977783,337.201050 227.755478,336.750580 
	C227.836990,329.604889 227.990585,322.458771 227.950531,315.313751 
	C227.940216,313.472992 227.320770,311.635651 227.113571,309.424622 
	C227.113571,309.424622 227.023422,309.040100 227.004562,308.096985 
	C227.002228,291.398682 226.999908,274.700378 227.106232,257.735748 
	C227.106232,257.735748 227.010284,257.464630 227.403152,257.002655 
	C227.272476,256.514740 227.141800,256.026794 227.110153,255.275391 
	C227.110153,255.275391 227.006226,255.013809 227.004730,254.157166 
	C227.336945,251.113770 227.975494,248.065994 227.932266,245.027939 
	C227.860748,240.000488 227.349884,234.979279 227.112427,229.572876 
	C227.112427,229.572876 226.976959,229.204376 227.754074,228.752258 
	C227.836060,223.271332 228.042313,217.788269 227.948837,212.310333 
	C227.900345,209.468231 227.321594,206.635178 227.113617,203.423569 
	C227.113617,203.423569 227.022644,203.037354 227.002609,202.197205 
	C227.001556,200.797394 227.000504,199.397583 226.978363,197.362701 
	C226.611252,197.202881 226.244156,197.043076 225.605331,196.863754 
	C225.605331,196.863754 225.369797,197.000580 224.752350,196.341568 
	C206.837021,196.236496 188.921707,196.131439 170.438721,195.968811 
	C170.283875,196.283859 170.129013,196.598892 169.993927,196.954163 
	C169.993927,196.954163 169.951599,196.939850 169.238953,196.947372 
	C168.472641,197.954010 167.706345,198.960663 166.994843,200.001114 
	C166.994843,200.001114 166.959183,199.947617 166.295670,200.131836 
	C163.445724,204.084381 160.595779,208.036926 157.386932,212.083527 
	C157.157104,212.217911 157.021133,212.416550 156.281158,212.877487 
	C154.528824,214.228485 152.776505,215.579483 151.001938,216.991135 
	C151.001938,216.991135 151.066345,216.996140 151.031586,216.057938 
	C151.026505,195.736740 151.106110,175.414886 150.943268,155.094940 
	C150.911575,151.139709 152.203003,149.769684 156.130371,149.951950 
	C161.111099,150.183090 166.115662,149.900528 172.027054,149.954285 
	C199.313126,149.918976 226.599197,149.883667 254.501297,149.918671 
	C254.706161,149.891342 254.911026,149.864029 256.031982,149.951233 
	C283.648041,149.914490 311.264099,149.877762 339.826508,149.948807 
	C345.915314,149.908401 352.004120,149.867996 358.608856,150.061539 
	C359.057709,150.394897 359.506561,150.728241 359.989441,151.002213 
	C359.989441,151.002213 359.926392,150.975601 359.988037,151.915756 
	C360.041840,171.592987 360.095673,191.270233 360.063873,211.722061 
	C360.317078,213.378174 360.570312,215.034286 361.011047,217.916794 
	C358.658386,216.512390 357.329590,215.719177 355.773529,214.283020 
	C351.694336,208.855240 347.615112,203.427460 342.877838,197.460129 
	C341.015717,196.950821 339.156586,196.012619 337.291016,195.999573 
	C321.398804,195.888382 305.504028,196.061584 289.613373,195.870285 
	C285.625702,195.822281 284.341125,197.789886 284.033203,201.092545 
	C283.880859,202.726654 284.100555,204.395447 284.024353,206.972092 
	C284.071472,222.963974 284.118591,238.955872 284.073944,255.765686 
	C284.103973,256.861206 284.134003,257.956726 284.011261,259.971832 
	C284.068665,286.961884 284.126038,313.951904 284.075165,341.761230 
	C284.108124,342.860809 284.141052,343.960388 284.032257,345.980194 
	C284.019318,360.001709 283.951447,374.023743 284.081299,388.043915 
	C284.093811,389.394836 285.334167,390.734406 285.995422,392.010468 
	C285.995422,392.010468 285.927612,392.025146 286.341827,392.804138 
	C308.388763,392.862701 330.435669,392.932556 352.482605,392.937836 
	C353.350769,392.938049 354.219086,392.322327 355.922302,392.077148 
	C381.775269,390.571228 403.701630,365.734222 405.758301,340.595093 
	C405.779602,323.397186 405.800934,306.199249 405.969055,288.074097 
	C406.000031,240.671158 406.099152,193.267990 405.929474,145.865768 
	C405.916260,142.171463 404.021759,138.483887 403.046082,134.023361 
	C402.293060,131.612305 401.540070,129.201248 400.634247,126.405785 
	C400.433044,126.212555 400.207123,126.054764 399.974976,126.034966 
	C399.974976,126.034966 400.078156,126.020294 399.863617,125.372177 
	C399.241364,124.193497 398.619110,123.014809 397.811462,121.274544 
	C397.478668,120.786087 397.145905,120.297638 396.636902,119.412117 
	C396.420868,119.218231 396.202240,119.027328 395.801819,118.277229 
	C395.471588,117.788635 395.141327,117.300041 394.648834,116.420189 
	C394.444183,116.220856 394.213654,116.058197 393.959747,116.040276 
z"/>
<path fill="#000000" opacity="1.000000" stroke="none" 
	d="
M134.432755,384.010803 
	C134.328049,384.342377 134.105728,384.470917 133.443802,383.910522 
	C132.062698,382.959503 131.003586,382.494385 129.944473,382.029266 
	C129.944473,382.029266 129.999573,382.005402 129.981628,381.684692 
	C125.630363,376.909119 121.297058,372.454254 116.963760,367.999420 
	C116.628128,367.992523 116.363083,367.852234 115.964516,367.189545 
	C115.631172,366.541870 115.443451,366.336853 115.197243,366.185425 
	C114.868858,365.694397 114.540474,365.203369 113.984673,364.250244 
	C113.623528,363.511780 113.422394,363.299164 113.153862,363.150330 
	C113.153862,363.150330 113.007202,362.711578 112.892059,362.267578 
	C112.651161,361.509247 112.436134,361.277954 112.131844,361.129700 
	C112.131844,361.129700 112.000633,360.681183 111.888138,360.255676 
	C111.653778,359.544006 111.457085,359.325134 111.185585,359.173523 
	C110.871567,358.381226 110.557549,357.588959 110.182907,356.103577 
	C109.426834,353.620636 108.731384,351.830780 108.035934,350.040955 
	C108.035934,350.040955 107.927620,349.706329 108.025314,349.051453 
	C107.801147,337.101196 107.299995,325.807434 107.198227,314.510040 
	C107.033401,296.212494 107.163139,277.912445 107.068504,259.613922 
	C107.058807,257.737305 106.369019,255.864166 105.994804,253.989410 
	C105.994804,253.989410 105.903748,253.572357 106.054214,252.895691 
	C106.172371,225.808975 106.140053,199.398911 106.395355,172.685425 
	C106.838997,170.584702 107.074921,168.790176 107.137489,166.989624 
	C107.440895,158.257416 107.535667,149.514114 108.043900,140.794540 
	C108.276001,136.812576 109.290871,132.876251 109.950729,128.919220 
	C113.428658,116.898987 121.854401,108.761864 132.021072,102.589470 
	C137.990784,98.965164 144.974274,97.010719 152.198059,94.435471 
	C160.997833,94.256752 169.101318,93.947739 177.614075,93.677994 
	C191.665115,93.643364 205.306900,93.504303 218.948654,93.508232 
	C254.900085,93.518578 290.851532,93.591026 327.269775,93.784653 
	C332.495300,93.967995 337.253967,94.028427 342.012726,94.036766 
	C347.385651,94.046181 352.758606,94.008774 358.131561,93.991737 
	C362.972626,95.634293 367.813660,97.276840 373.114777,99.197693 
	C373.774933,99.573982 373.868622,99.734268 373.855896,99.956863 
	C374.754089,100.063148 375.652252,100.169441 376.912415,100.840340 
	C377.869904,101.596756 378.465454,101.788559 379.061005,101.980370 
	C379.061005,101.980370 379.000549,101.996933 379.061646,102.308731 
	C380.101929,103.073547 381.081146,103.526573 382.060333,103.979591 
	C382.060333,103.979591 382.000580,103.997337 382.060913,104.311562 
	C383.435394,105.407990 384.749542,106.190193 386.063660,106.972404 
	C386.063660,106.972404 386.005402,106.994911 386.037415,107.255569 
	C386.401764,107.673721 386.734100,107.831207 387.066406,107.988693 
	C387.066406,107.988693 387.002838,107.997124 387.033691,108.258347 
	C387.398376,108.676018 387.732178,108.832474 388.066010,108.988922 
	C388.066010,108.988930 388.002380,108.997772 388.039673,109.254837 
	C388.406769,109.671204 388.736542,109.830505 389.066315,109.989807 
	C389.066315,109.989807 389.002594,109.997223 389.030914,110.260757 
	C389.395172,110.677826 389.731140,110.831352 390.067078,110.984879 
	C390.067078,110.984879 390.005432,110.994545 389.964111,111.311005 
	C390.652954,112.419708 391.383148,113.211945 392.113342,114.004196 
	C392.448029,114.050522 392.700867,114.219391 393.104767,114.924164 
	C393.581055,115.572655 393.824432,115.807793 394.067810,116.042938 
	C394.067810,116.042946 393.959747,116.040276 394.099396,116.137436 
	C394.372467,116.483696 394.563141,116.675980 394.811066,116.811447 
	C395.141327,117.300041 395.471588,117.788635 396.033508,118.721069 
	C396.378540,119.438675 396.561157,119.653435 396.813110,119.809189 
	C397.145905,120.297638 397.478668,120.786087 397.928711,121.927704 
	C398.723358,123.727333 399.400757,124.873810 400.078186,126.020287 
	C400.078156,126.020294 399.974976,126.034966 400.105835,126.128082 
	C400.366058,126.463173 400.549530,126.652840 400.787048,126.790192 
	C401.540070,129.201248 402.293060,131.612305 402.982422,134.846008 
	C403.351837,138.616638 404.098022,141.557510 404.164886,144.513763 
	C404.491302,158.952988 404.763306,173.395798 404.820160,187.838287 
	C404.952972,221.558167 404.951660,255.278580 404.957916,289.465759 
	C404.600128,306.302826 404.275299,322.672729 404.025696,339.043762 
	C404.015137,339.735046 404.703583,340.437012 405.066406,341.134003 
	C403.701630,365.734222 381.775269,390.571228 355.030457,392.013855 
	C331.401611,391.975464 308.664612,392.000305 285.927612,392.025146 
	C285.927612,392.025146 285.995422,392.010468 286.004395,391.575378 
	C285.848267,375.724487 285.683136,360.308685 285.682159,344.654572 
	C285.701721,343.302856 285.557098,342.189484 285.448486,340.604187 
	C285.472717,313.060089 285.460907,285.987885 285.622528,258.681946 
	C285.682617,257.326324 285.569305,256.204407 285.493652,254.610107 
	C285.576721,238.145706 285.622162,222.153687 285.804993,205.724319 
	C286.867462,202.490067 284.099823,197.716919 290.279724,197.770340 
	C308.031097,197.923843 325.783752,197.933502 343.535889,197.999664 
	C347.615112,203.427460 351.694336,208.855240 355.890137,215.023926 
	C354.492767,216.527206 353.051422,217.657196 351.449371,217.973557 
	C348.343292,218.586960 345.146820,218.742767 341.526123,219.006866 
	C330.690186,218.934830 320.315918,218.944107 309.634460,218.924377 
	C308.783905,219.302582 308.240570,219.709793 307.697266,220.117004 
	C308.155273,220.404984 308.613281,220.692932 309.042053,220.992798 
	C309.012817,221.004730 309.006775,220.941864 309.069122,221.210358 
	C309.440948,221.648712 309.750427,221.818588 310.030151,221.993301 
	C310.000427,221.998123 310.016418,221.940048 310.055603,222.222580 
	C310.416962,222.660751 310.739166,222.816391 311.030518,222.981659 
	C310.999634,222.991287 311.043701,222.943909 310.973083,223.298920 
	C311.661224,224.434967 312.420013,225.216019 313.474487,226.135681 
	C319.995117,233.063049 326.348602,239.739700 332.402222,246.677979 
	C336.815735,251.736435 340.647369,257.303772 345.078888,262.344971 
	C349.828156,267.747589 354.976013,272.799805 360.178467,277.817810 
	C360.608124,277.291138 360.809204,276.951630 360.976685,276.449707 
	C360.943115,276.287262 361.040955,275.970215 361.325195,275.665955 
	C361.764801,273.894653 362.053986,272.427765 362.055176,270.960571 
	C362.069153,253.573517 362.066223,236.186295 361.994324,218.799423 
	C361.983551,216.192856 361.596924,213.587860 361.371490,210.514694 
	C361.358124,192.130829 361.397552,174.214157 361.294342,156.298325 
	C361.284088,154.521500 360.403198,152.749710 359.926392,150.975601 
	C359.926392,150.975601 359.989441,151.002213 360.186279,150.715912 
	C360.269104,149.939255 360.155090,149.448868 359.890747,148.600189 
	C357.523560,147.873459 355.307007,147.185287 353.089783,147.183228 
	C293.167969,147.127487 233.246094,147.141785 173.324234,147.145157 
	C167.498550,147.145493 161.671387,147.071808 155.847687,147.181122 
	C151.508850,147.262558 149.156418,149.278885 149.179474,153.988388 
	C149.275681,173.628967 149.182617,193.270508 149.298416,212.910873 
	C149.306473,214.276062 150.450546,215.634537 151.066345,216.996140 
	C151.066345,216.996140 151.001938,216.991135 150.983109,217.319916 
	C150.987122,217.887817 151.009979,218.126953 151.051285,218.538116 
	C151.069733,218.710159 150.960541,219.038513 150.634003,219.236633 
	C149.942703,221.333679 149.279175,223.229965 149.262512,225.131943 
	C149.166748,236.058640 149.225327,246.986694 149.229477,257.914276 
	C149.231613,263.543610 149.128357,269.176086 149.304779,274.799866 
	C149.345627,276.102234 150.027435,278.035431 150.973877,278.475861 
	C151.925735,278.918793 153.961060,278.253021 154.840073,277.383850 
	C156.787308,275.458466 158.307312,273.100983 160.003265,270.962585 
	C160.004990,271.005432 159.919281,271.009766 160.260529,270.903259 
	C161.398880,269.462250 162.195953,268.127716 163.092743,266.540802 
	C163.754486,265.859283 164.316513,265.430115 165.230865,264.909058 
	C166.385498,263.459717 167.187790,262.102264 168.090820,260.498718 
	C168.744812,259.835236 169.298096,259.417847 170.201141,258.918365 
	C172.029831,256.794220 173.508759,254.752197 175.088013,252.470642 
	C175.729080,251.819656 176.269791,251.408188 177.169250,250.939117 
	C179.012360,248.819717 180.496689,246.757904 182.113495,244.437988 
	C183.129822,243.453323 184.013672,242.726791 185.242432,241.921448 
	C187.056030,239.832687 188.524689,237.822708 190.122009,235.524368 
	C191.217209,234.120331 192.183746,233.004654 193.501312,231.894073 
	C195.234146,230.240829 196.615936,228.582504 197.998795,226.963242 
	C197.999847,227.002319 197.921707,227.004608 198.264801,226.925659 
	C200.063980,224.877457 201.520065,222.908218 202.981659,220.969986 
	C202.987183,221.001007 202.927277,220.981430 203.208893,220.975296 
	C203.692413,220.348312 203.894302,219.727463 204.096191,219.106598 
	C203.397751,219.067719 202.699310,219.028839 201.534698,218.935577 
	C191.035660,218.852219 181.002762,218.823242 170.803619,218.635956 
	C170.099548,218.596024 169.561752,218.714417 168.560379,218.833313 
	C164.104370,218.807083 160.111954,218.780365 156.086212,218.369629 
	C156.361618,216.216919 156.670319,214.448181 156.979019,212.679459 
	C157.021133,212.416550 157.157104,212.217911 157.924820,211.989624 
	C161.294876,207.913025 164.127029,203.930313 166.959183,199.947617 
	C166.959183,199.947617 166.994843,200.001114 167.316010,199.992065 
	C168.408646,198.968628 169.180115,197.954239 169.951599,196.939850 
	C169.951599,196.939850 169.993927,196.954163 170.052185,197.048340 
	C170.110428,197.142517 170.335297,197.284882 170.845474,197.281738 
	C189.360367,197.185928 207.365082,197.093246 225.369797,197.000580 
	C225.369797,197.000580 225.605331,196.863754 225.702515,196.979431 
	C225.799683,197.095093 225.697693,197.296219 225.681580,197.743622 
	C226.117859,199.806458 226.570251,201.421906 227.022644,203.037354 
	C227.022644,203.037354 227.113617,203.423569 226.931549,204.079987 
	C226.825302,212.892380 226.901123,221.048386 226.976959,229.204376 
	C226.976959,229.204376 227.112427,229.572876 226.712769,230.011414 
	C226.147858,236.486221 225.865479,242.522766 225.880035,248.558594 
	C225.885223,250.711227 226.609940,252.862122 227.006226,255.013809 
	C227.006226,255.013809 227.110153,255.275391 226.973145,255.888763 
	C226.894196,256.822998 226.952240,257.143829 227.010284,257.464630 
	C227.010284,257.464630 227.106232,257.735748 226.718933,258.133545 
	C226.178802,259.167419 225.894150,259.803192 225.892487,260.439667 
	C225.852921,275.631958 225.820953,290.824371 225.880432,306.016418 
	C225.884369,307.025787 226.625290,308.032288 227.023422,309.040100 
	C227.023422,309.040100 227.113571,309.424622 226.929214,310.079651 
	C226.822510,319.556793 226.900146,328.378937 226.977783,337.201050 
	C226.977783,337.201050 227.110474,337.577057 226.716537,338.023438 
	C226.160049,352.383972 226.048721,366.298981 225.802444,380.211609 
	C225.732422,384.167358 225.269730,388.116211 224.987106,392.068207 
	C224.987106,392.068207 224.997192,391.984406 224.564789,391.975159 
	C204.822678,391.984863 185.512985,392.003784 166.203278,392.022705 
	C165.972900,392.017303 165.742523,392.011871 164.849762,391.719452 
	C159.830093,390.858124 155.362244,390.707336 151.142670,389.605591 
	C145.472321,388.125092 139.993683,385.910370 134.432755,384.010803 
z"/>
<path fill="#000000" opacity="1.000000" stroke="none" 
	d="
M151.048965,216.527039 
	C150.450546,215.634537 149.306473,214.276062 149.298416,212.910873 
	C149.182617,193.270508 149.275681,173.628967 149.179474,153.988388 
	C149.156418,149.278885 151.508850,147.262558 155.847687,147.181122 
	C161.671387,147.071808 167.498550,147.145493 173.324234,147.145157 
	C233.246094,147.141785 293.167969,147.127487 353.089783,147.183228 
	C355.307007,147.185287 357.523560,147.873459 359.624207,148.664154 
	C359.036316,149.333481 358.564606,149.580536 358.092926,149.827591 
	C352.004120,149.867996 345.915314,149.908401 339.039307,149.635803 
	C337.434418,149.201385 336.616760,148.974319 335.799011,148.973938 
	C310.337006,148.962402 284.874969,148.959137 259.413086,149.016663 
	C257.980072,149.019897 256.548248,149.551193 255.115875,149.836700 
	C254.911026,149.864029 254.706161,149.891342 253.879852,149.623688 
	C252.605789,149.217545 251.953293,149.009720 251.300583,149.009109 
	C225.833862,148.985580 200.367096,148.968552 174.900436,149.010666 
	C173.636490,149.012756 172.373428,149.550934 171.109955,149.839478 
	C166.115662,149.900528 161.111099,150.183090 156.130371,149.951950 
	C152.203003,149.769684 150.911575,151.139709 150.943268,155.094940 
	C151.106110,175.414886 151.026505,195.736740 151.048965,216.527039 
z"/>
<path fill="#FFFFFF" opacity="1.000000" stroke="none" 
	d="
M326.802948,93.638748 
	C290.851532,93.591026 254.900085,93.518578 218.948654,93.508232 
	C205.306900,93.504303 191.665115,93.643364 177.607849,93.436401 
	C177.147949,92.833923 177.105774,92.512032 177.065811,92.189842 
	C213.779495,92.126602 250.493149,92.037331 287.206848,92.014046 
	C300.326111,92.005722 313.445496,92.157066 326.697388,92.758942 
	C326.829956,93.282341 326.802948,93.638748 326.802948,93.638748 
z"/>
<path fill="#000000" opacity="1.000000" stroke="none" 
	d="
M405.004639,288.998779 
	C404.951660,255.278580 404.952972,221.558167 404.820160,187.838287 
	C404.763306,173.395798 404.491302,158.952988 404.164886,144.513763 
	C404.098022,141.557510 403.351837,138.616638 402.960205,135.230927 
	C404.021759,138.483887 405.916260,142.171463 405.929474,145.865768 
	C406.099152,193.267990 406.000031,240.671158 405.691254,288.537811 
	C405.413452,289.001526 405.004639,288.998779 405.004639,288.998779 
z"/>
<path fill="#000000" opacity="1.000000" stroke="none" 
	d="
M343.206848,197.729904 
	C325.783752,197.933502 308.031097,197.923843 290.279724,197.770340 
	C284.099823,197.716919 286.867462,202.490067 285.552795,205.714905 
	C284.826080,206.111404 284.489014,206.079987 284.151917,206.048553 
	C284.100555,204.395447 283.880859,202.726654 284.033203,201.092545 
	C284.341125,197.789886 285.625702,195.822281 289.613373,195.870285 
	C305.504028,196.061584 321.398804,195.888382 337.291016,195.999573 
	C339.156586,196.012619 341.015717,196.950821 343.206848,197.729904 
z"/>
<path fill="#000000" opacity="1.000000" stroke="none" 
	d="
M361.384186,210.982132 
	C361.596924,213.587860 361.983551,216.192856 361.994324,218.799423 
	C362.066223,236.186295 362.069153,253.573517 362.055176,270.960571 
	C362.053986,272.427765 361.764801,273.894653 361.319641,275.199341 
	C361.025208,259.103119 361.073639,243.168854 360.964111,227.235672 
	C360.945648,224.550400 360.245331,221.869812 359.949982,219.812988 
	C353.426880,219.812988 347.662354,219.812988 341.898499,219.629089 
	C341.899200,219.445175 341.987823,219.088196 341.987823,219.088196 
	C345.146820,218.742767 348.343292,218.586960 351.449371,217.973557 
	C353.051422,217.657196 354.492767,216.527206 356.003784,215.345398 
	C357.329590,215.719177 358.658386,216.512390 361.011047,217.916794 
	C360.570312,215.034286 360.317078,213.378174 360.415497,211.338531 
	C360.972809,210.964050 361.178497,210.973083 361.384186,210.982132 
z"/>
<path fill="#000000" opacity="1.000000" stroke="none" 
	d="
M106.006439,254.458832 
	C106.369019,255.864166 107.058807,257.737305 107.068504,259.613922 
	C107.163139,277.912445 107.033401,296.212494 107.198227,314.510040 
	C107.299995,325.807434 107.801147,337.101196 108.056763,348.878479 
	C107.321198,346.070312 106.087822,342.783142 106.071152,339.489807 
	C105.928497,311.303253 106.006241,283.115570 106.006439,254.458832 
z"/>
<path fill="#000000" opacity="1.000000" stroke="none" 
	d="
M109.685661,129.168732 
	C109.290871,132.876251 108.276001,136.812576 108.043900,140.794540 
	C107.535667,149.514114 107.440895,158.257416 107.137489,166.989624 
	C107.074921,168.790176 106.838997,170.584702 106.146790,172.711639 
	C105.610588,173.041290 105.113686,173.095947 105.113686,173.095947 
	C105.065773,166.758865 105.002975,160.421875 104.973602,154.084702 
	C104.934235,145.590485 104.955109,137.102371 109.685661,129.168732 
z"/>
<path fill="#FFFFFF" opacity="1.000000" stroke="none" 
	d="
M255.573929,149.893967 
	C256.548248,149.551193 257.980072,149.019897 259.413086,149.016663 
	C284.874969,148.959137 310.337006,148.962402 335.799011,148.973938 
	C336.616760,148.974319 337.434418,149.201385 338.566132,149.581909 
	C311.264099,149.877762 283.648041,149.914490 255.573929,149.893967 
z"/>
<path fill="#FFFFFF" opacity="1.000000" stroke="none" 
	d="
M171.568512,149.896881 
	C172.373428,149.550934 173.636490,149.012756 174.900436,149.010666 
	C200.367096,148.968552 225.833862,148.985580 251.300583,149.009109 
	C251.953293,149.009720 252.605789,149.217545 253.571838,149.588531 
	C226.599197,149.883667 199.313126,149.918976 171.568512,149.896881 
z"/>
<path fill="#FFFFFF" opacity="1.000000" stroke="none" 
	d="
M285.449127,258.915680 
	C285.460907,285.987885 285.472717,313.060089 285.142853,340.546997 
	C284.595306,340.955139 284.389374,340.948547 284.183441,340.941956 
	C284.126038,313.951904 284.068665,286.961884 284.410980,259.497253 
	C285.023499,258.987000 285.236328,258.951355 285.449127,258.915680 
z"/>
<path fill="#FFFFFF" opacity="1.000000" stroke="none" 
	d="
M105.060898,173.556122 
	C105.113686,173.095947 105.610588,173.041290 105.859161,173.015076 
	C106.140053,199.398911 106.172371,225.808975 106.110870,252.689926 
	C105.678040,251.666199 105.047035,250.172272 105.043526,248.676865 
	C104.985153,223.790131 105.005402,198.903198 105.060898,173.556122 
z"/>
<path fill="#FFFFFF" opacity="1.000000" stroke="none" 
	d="
M284.088135,206.510315 
	C284.489014,206.079987 284.826080,206.111404 285.415375,206.152252 
	C285.622162,222.153687 285.576721,238.145706 285.172241,254.556274 
	C284.597382,254.965805 284.381561,254.956787 284.165710,254.947754 
	C284.118591,238.955872 284.071472,222.963974 284.088135,206.510315 
z"/>
<path fill="#FFFFFF" opacity="1.000000" stroke="none" 
	d="
M286.134705,392.414642 
	C308.664612,392.000305 331.401611,391.975464 354.612976,391.972107 
	C354.219086,392.322327 353.350769,392.938049 352.482605,392.937836 
	C330.435669,392.932556 308.388763,392.862701 286.134705,392.414642 
z"/>
<path fill="#FFFFFF" opacity="1.000000" stroke="none" 
	d="
M285.517975,344.892914 
	C285.683136,360.308685 285.848267,375.724487 286.008972,391.609741 
	C285.334167,390.734406 284.093811,389.394836 284.081299,388.043915 
	C283.951447,374.023743 284.019318,360.001709 284.442108,345.502258 
	C285.073975,344.980530 285.295959,344.936737 285.517975,344.892914 
z"/>
<path fill="#FFFFFF" opacity="1.000000" stroke="none" 
	d="
M361.371490,210.514694 
	C361.178497,210.973083 360.972809,210.964050 360.458313,210.951233 
	C360.095673,191.270233 360.041840,171.592987 359.957214,151.445679 
	C360.403198,152.749710 361.284088,154.521500 361.294342,156.298325 
	C361.397552,174.214157 361.358124,192.130829 361.371490,210.514694 
z"/>
<path fill="#FFFFFF" opacity="1.000000" stroke="none" 
	d="
M166.494507,392.307190 
	C185.512985,392.003784 204.822678,391.984863 224.606750,391.979584 
	C224.543304,392.293579 224.004730,392.857697 223.467804,392.856140 
	C204.573700,392.800903 185.679733,392.692566 166.494507,392.307190 
z"/>
<path fill="#000000" opacity="1.000000" stroke="none" 
	d="
M404.957916,289.465759 
	C405.004639,288.998779 405.413452,289.001526 405.617859,289.001434 
	C405.800934,306.199249 405.779602,323.397186 405.412354,340.864563 
	C404.703583,340.437012 404.015137,339.735046 404.025696,339.043762 
	C404.275299,322.672729 404.600128,306.302826 404.957916,289.465759 
z"/>
<path fill="#000000" opacity="1.000000" stroke="none" 
	d="
M225.409805,391.980530 
	C225.269730,388.116211 225.732422,384.167358 225.802444,380.211609 
	C226.048721,366.298981 226.160049,352.383972 226.671234,338.217590 
	C227.012177,354.336517 227.036713,370.707886 226.946045,387.078583 
	C226.937149,388.685333 226.220596,390.288177 225.409805,391.980530 
z"/>
<path fill="#000000" opacity="1.000000" stroke="none" 
	d="
M225.061066,196.671082 
	C207.365082,197.093246 189.360367,197.185928 171.002014,196.959320 
	C170.767715,196.435501 170.887054,196.230942 171.006378,196.026382 
	C188.921707,196.131439 206.837021,196.236496 225.061066,196.671082 
z"/>
<path fill="#000000" opacity="1.000000" stroke="none" 
	d="
M227.013992,308.568542 
	C226.625290,308.032288 225.884369,307.025787 225.880432,306.016418 
	C225.820953,290.824371 225.852921,275.631958 225.892487,260.439667 
	C225.894150,259.803192 226.178802,259.167419 226.664612,258.266724 
	C226.999908,274.700378 227.002228,291.398682 227.013992,308.568542 
z"/>
<path fill="#5E606B" opacity="1.000000" stroke="none" 
	d="
M134.571106,384.365112 
	C139.993683,385.910370 145.472321,388.125092 151.142670,389.605591 
	C155.362244,390.707336 159.830093,390.858124 164.511383,391.648895 
	C156.072067,392.465302 147.462585,391.937531 139.416565,387.984680 
	C137.721848,387.152130 136.272095,385.820892 134.571106,384.365112 
z"/>
<path fill="#757580" opacity="1.000000" stroke="none" 
	d="
M327.269775,93.784653 
	C326.802948,93.638748 326.829956,93.282341 326.922974,93.129730 
	C337.252197,93.049751 347.488403,93.122368 357.928101,93.593361 
	C352.758606,94.008774 347.385651,94.046181 342.012726,94.036766 
	C337.253967,94.028427 332.495300,93.967995 327.269775,93.784653 
z"/>
<path fill="#000000" opacity="1.000000" stroke="none" 
	d="
M227.005478,254.585480 
	C226.609940,252.862122 225.885223,250.711227 225.880035,248.558594 
	C225.865479,242.522766 226.147858,236.486221 226.668625,230.202698 
	C227.349884,234.979279 227.860748,240.000488 227.932266,245.027939 
	C227.975494,248.065994 227.336945,251.113770 227.005478,254.585480 
z"/>
<path fill="#000000" opacity="1.000000" stroke="none" 
	d="
M117.064529,368.342407 
	C121.297058,372.454254 125.630363,376.909119 129.971054,381.712769 
	C123.733505,379.493652 119.551003,374.950104 117.064529,368.342407 
z"/>
<path fill="#757580" opacity="1.000000" stroke="none" 
	d="
M176.638947,92.117294 
	C177.105774,92.512032 177.147949,92.833923 177.198578,93.397125 
	C169.101318,93.947739 160.997833,94.256752 152.575836,94.386086 
	C156.820938,93.809212 161.385391,93.421577 165.947845,93.011696 
	C169.370590,92.704201 172.790756,92.368103 176.638947,92.117294 
z"/>
<path fill="#5E606B" opacity="1.000000" stroke="none" 
	d="
M166.627426,200.039734 
	C164.127029,203.930313 161.294876,207.913025 158.104279,211.942596 
	C160.595779,208.036926 163.445724,204.084381 166.627426,200.039734 
z"/>
<path fill="#FFFFFF" opacity="1.000000" stroke="none" 
	d="
M227.366638,336.975830 
	C226.900146,328.378937 226.822510,319.556793 226.863007,310.265686 
	C227.320770,311.635651 227.940216,313.472992 227.950531,315.313751 
	C227.990585,322.458771 227.836990,329.604889 227.366638,336.975830 
z"/>
<path fill="#FFFFFF" opacity="1.000000" stroke="none" 
	d="
M227.365509,228.978317 
	C226.901123,221.048386 226.825302,212.892380 226.865936,204.267212 
	C227.321594,206.635178 227.900345,209.468231 227.948837,212.310333 
	C228.042313,217.788269 227.836060,223.271332 227.365509,228.978317 
z"/>
<path fill="#000000" opacity="1.000000" stroke="none" 
	d="
M156.630096,212.778473 
	C156.670319,214.448181 156.361618,216.216919 155.808716,218.484955 
	C155.074036,219.283569 154.583572,219.582870 153.787552,219.896286 
	C152.665604,219.395630 151.849228,218.880859 151.032837,218.366089 
	C151.009979,218.126953 150.987122,217.887817 150.994232,217.289581 
	C152.776505,215.579483 154.528824,214.228485 156.630096,212.778473 
z"/>
<path fill="#000000" opacity="1.000000" stroke="none" 
	d="
M108.017456,350.426147 
	C108.731384,351.830780 109.426834,353.620636 110.058929,355.806213 
	C109.330048,354.405060 108.664513,352.608185 108.017456,350.426147 
z"/>
<path fill="#000000" opacity="1.000000" stroke="none" 
	d="
M284.119843,255.356720 
	C284.381561,254.956787 284.597382,254.965805 285.134583,255.028656 
	C285.569305,256.204407 285.682617,257.326324 285.622528,258.681946 
	C285.236328,258.951355 285.023499,258.987000 284.487366,259.037445 
	C284.134003,257.956726 284.103973,256.861206 284.119843,255.356720 
z"/>
<path fill="#000000" opacity="1.000000" stroke="none" 
	d="
M285.682159,344.654572 
	C285.295959,344.936737 285.073975,344.980530 284.513000,345.042114 
	C284.141052,343.960388 284.108124,342.860809 284.129303,341.351593 
	C284.389374,340.948547 284.595306,340.955139 285.106842,341.018921 
	C285.557098,342.189484 285.701721,343.302856 285.682159,344.654572 
z"/>
<path fill="#757580" opacity="1.000000" stroke="none" 
	d="
M385.964233,106.649857 
	C384.749542,106.190193 383.435394,105.407990 382.062317,104.280426 
	C383.290497,104.732475 384.577637,105.529892 385.964233,106.649857 
z"/>
<path fill="#5E606B" opacity="1.000000" stroke="none" 
	d="
M169.595276,196.943604 
	C169.180115,197.954239 168.408646,198.968628 167.288605,199.975159 
	C167.706345,198.960663 168.472641,197.954010 169.595276,196.943604 
z"/>
<path fill="#757580" opacity="1.000000" stroke="none" 
	d="
M399.970886,125.696228 
	C399.400757,124.873810 398.723358,123.727333 398.021423,122.208496 
	C398.619110,123.014809 399.241364,124.193497 399.970886,125.696228 
z"/>
<path fill="#000000" opacity="1.000000" stroke="none" 
	d="
M227.012634,202.617279 
	C226.570251,201.421906 226.117859,199.806458 226.013916,197.908051 
	C226.574738,197.749313 226.787109,197.873535 226.999451,197.997772 
	C227.000504,199.397583 227.001556,200.797394 227.012634,202.617279 
z"/>
<path fill="#757580" opacity="1.000000" stroke="none" 
	d="
M381.969666,103.653114 
	C381.081146,103.526573 380.101929,103.073547 379.063202,102.277420 
	C379.962097,102.398430 380.920563,102.862534 381.969666,103.653114 
z"/>
<path fill="#757580" opacity="1.000000" stroke="none" 
	d="
M392.052948,113.673187 
	C391.383148,113.211945 390.652954,112.419708 389.975647,111.282013 
	C390.683197,111.738441 391.337860,112.540314 392.052948,113.673187 
z"/>
<path fill="#000000" opacity="1.000000" stroke="none" 
	d="
M130.064423,382.382080 
	C131.003586,382.494385 132.062698,382.959503 133.314484,383.742645 
	C132.399551,383.618744 131.291962,383.176819 130.064423,382.382080 
z"/>
<path fill="#FFFFFF" opacity="1.000000" stroke="none" 
	d="
M358.350891,149.944565 
	C358.564606,149.580536 359.036316,149.333481 359.774536,149.022461 
	C360.155090,149.448868 360.269104,149.939255 360.169250,150.745605 
	C359.506561,150.728241 359.057709,150.394897 358.350891,149.944565 
z"/>
<path fill="#757580" opacity="1.000000" stroke="none" 
	d="
M378.951233,101.670967 
	C378.465454,101.788559 377.869904,101.596756 377.128479,101.106087 
	C377.602203,100.992004 378.221802,101.176781 378.951233,101.670967 
z"/>
<path fill="#000000" opacity="1.000000" stroke="none" 
	d="
M113.241455,363.358063 
	C113.422394,363.299164 113.623528,363.511780 113.885284,363.971924 
	C113.767891,363.979156 113.539803,363.782532 113.241455,363.358063 
z"/>
<path fill="#000000" opacity="1.000000" stroke="none" 
	d="
M112.216827,361.357056 
	C112.436134,361.277954 112.651161,361.509247 112.894608,362.036316 
	C112.760971,362.042969 112.524139,361.821411 112.216827,361.357056 
z"/>
<path fill="#000000" opacity="1.000000" stroke="none" 
	d="
M111.261902,359.387634 
	C111.457085,359.325134 111.653778,359.544006 111.894302,360.022095 
	C111.774284,360.025085 111.549377,359.820984 111.261902,359.387634 
z"/>
<path fill="#000000" opacity="1.000000" stroke="none" 
	d="
M115.276596,366.385101 
	C115.443451,366.336853 115.631172,366.541870 115.886627,366.971069 
	C115.777954,366.974823 115.558990,366.789215 115.276596,366.385101 
z"/>
<path fill="#757580" opacity="1.000000" stroke="none" 
	d="
M386.999817,107.722382 
	C386.734100,107.831207 386.401764,107.673721 386.041321,107.224594 
	C386.319885,107.107330 386.626587,107.281700 386.999817,107.722382 
z"/>
<path fill="#757580" opacity="1.000000" stroke="none" 
	d="
M373.783142,99.837067 
	C373.868622,99.734268 373.774933,99.573982 373.450806,99.401474 
	C373.511047,99.401627 373.638916,99.531738 373.783142,99.837067 
z"/>
<path fill="#757580" opacity="1.000000" stroke="none" 
	d="
M388.001465,108.720993 
	C387.732178,108.832474 387.398376,108.676018 387.038086,108.226578 
	C387.320038,108.106758 387.628479,108.279915 388.001465,108.720993 
z"/>
<path fill="#757580" opacity="1.000000" stroke="none" 
	d="
M388.996948,109.724640 
	C388.736542,109.830505 388.406769,109.671204 388.043213,109.222900 
	C388.315460,109.109085 388.621552,109.284286 388.996948,109.724640 
z"/>
<path fill="#757580" opacity="1.000000" stroke="none" 
	d="
M390.003479,110.716507 
	C389.731140,110.831352 389.395172,110.677826 389.035614,110.229034 
	C389.321289,110.105225 389.630554,110.276680 390.003479,110.716507 
z"/>
<path fill="#757580" opacity="1.000000" stroke="none" 
	d="
M393.931885,115.823051 
	C393.824432,115.807793 393.581055,115.572655 393.165802,115.150757 
	C393.261261,115.177055 393.528595,115.390114 393.931885,115.823051 
z"/>
<path fill="#000000" opacity="1.000000" stroke="none" 
	d="
M227.206726,257.233643 
	C226.952240,257.143829 226.894196,256.822998 226.923630,256.020508 
	C227.141800,256.026794 227.272476,256.514740 227.206726,257.233643 
z"/>
<path fill="#757580" opacity="1.000000" stroke="none" 
	d="
M394.729950,116.615822 
	C394.563141,116.675980 394.372467,116.483696 394.098145,116.083412 
	C394.213654,116.058197 394.444183,116.220856 394.729950,116.615822 
z"/>
<path fill="#757580" opacity="1.000000" stroke="none" 
	d="
M396.725006,119.610657 
	C396.561157,119.653435 396.378540,119.438675 396.123108,119.002167 
	C396.202240,119.027328 396.420868,119.218231 396.725006,119.610657 
z"/>
<path fill="#757580" opacity="1.000000" stroke="none" 
	d="
M400.710632,126.597992 
	C400.549530,126.652840 400.366058,126.463173 400.096558,126.076797 
	C400.207123,126.054764 400.433044,126.212555 400.710632,126.597992 
z"/>
<path fill="#5E606B" opacity="1.000000" stroke="none" 
	d="
M170.722549,195.997589 
	C170.887054,196.230942 170.767715,196.435501 170.491821,196.962463 
	C170.335297,197.284882 170.110428,197.142517 170.042297,197.028229 
	C170.129013,196.598892 170.283875,196.283859 170.722549,195.997589 
z"/>
<path fill="#5E606B" opacity="1.000000" stroke="none" 
	d="
M226.988922,197.680237 
	C226.787109,197.873535 226.574738,197.749313 226.030029,197.460663 
	C225.697693,197.296219 225.799683,197.095093 225.838364,196.989166 
	C226.244156,197.043076 226.611252,197.202881 226.988922,197.680237 
z"/>
<path fill="#000000" opacity="1.000000" stroke="none" 
	d="
M341.897797,219.812988 
	C347.662354,219.812988 353.426880,219.812988 359.949982,219.812988 
	C360.245331,221.869812 360.945648,224.550400 360.964111,227.235672 
	C361.073639,243.168854 361.025208,259.103119 361.035400,275.503601 
	C361.040955,275.970215 360.943115,276.287262 360.773956,276.665100 
	C360.386505,277.363586 360.168213,277.684265 359.949921,278.004974 
	C354.976013,272.799805 349.828156,267.747589 345.078888,262.344971 
	C340.647369,257.303772 336.815735,251.736435 332.402222,246.677979 
	C326.348602,239.739700 319.995117,233.063049 313.400024,225.806580 
	C312.367798,224.540543 311.705750,223.742233 311.043701,222.943909 
	C311.043701,222.943909 310.999634,222.991287 310.967133,222.716858 
	C310.628571,222.274963 310.322479,222.107498 310.016418,221.940048 
	C310.016418,221.940048 310.000427,221.998123 309.959198,221.730789 
	C309.614227,221.289581 309.310516,221.115723 309.006775,220.941864 
	C309.006775,220.941864 309.012817,221.004730 309.108124,220.737152 
	C309.492706,220.270493 309.781982,220.071411 310.533325,219.919739 
	C321.296204,219.915756 331.596985,219.864380 341.897797,219.812988 
z"/>
<path fill="#000000" opacity="1.000000" stroke="none" 
	d="
M151.051285,218.538116 
	C151.849228,218.880859 152.665604,219.395630 154.244720,219.946777 
	C159.653748,219.961533 164.300049,219.939926 169.287811,220.006393 
	C170.094025,220.046936 170.558777,219.999390 171.489594,219.986816 
	C181.945053,219.968903 191.934464,219.916031 202.154465,219.995789 
	C202.565811,220.412766 202.746552,220.697098 202.927277,220.981430 
	C202.927277,220.981430 202.987183,221.001007 202.665253,221.085495 
	C200.869446,223.114853 199.395569,225.059723 197.921707,227.004608 
	C197.921707,227.004608 197.999847,227.002319 197.719955,227.130646 
	C196.010147,228.802322 194.580215,230.345657 193.150284,231.888992 
	C192.183746,233.004654 191.217209,234.120331 189.837143,235.730316 
	C187.914917,238.149857 186.406219,240.075043 184.897507,242.000244 
	C184.013672,242.726791 183.129822,243.453323 181.768158,244.543304 
	C179.797073,246.936737 178.303802,248.966721 176.810516,250.996704 
	C176.269791,251.408188 175.729080,251.819656 174.806717,252.689728 
	C172.900497,255.099045 171.375931,257.049744 169.851364,259.000458 
	C169.298096,259.417847 168.744812,259.835236 167.825562,260.708344 
	C166.599243,262.443024 165.738892,263.721985 164.878540,265.000946 
	C164.316513,265.430115 163.754486,265.859283 162.820374,266.740234 
	C161.605286,268.464630 160.762283,269.737183 159.919281,271.009766 
	C159.919281,271.009766 160.004990,271.005432 159.620926,270.981964 
	C156.750107,272.927734 154.263336,274.896942 150.960541,277.512360 
	C150.960541,257.352112 150.960541,238.195312 150.960541,219.038513 
	C150.960541,219.038513 151.069733,218.710159 151.051285,218.538116 
z"/>
<path fill="#000000" opacity="1.000000" stroke="none" 
	d="
M150.634003,219.236633 
	C150.960541,238.195312 150.960541,257.352112 150.960541,277.512360 
	C154.263336,274.896942 156.750107,272.927734 159.619202,270.939087 
	C158.307312,273.100983 156.787308,275.458466 154.840073,277.383850 
	C153.961060,278.253021 151.925735,278.918793 150.973877,278.475861 
	C150.027435,278.035431 149.345627,276.102234 149.304779,274.799866 
	C149.128357,269.176086 149.231613,263.543610 149.229477,257.914276 
	C149.225327,246.986694 149.166748,236.058640 149.262512,225.131943 
	C149.279175,223.229965 149.942703,221.333679 150.634003,219.236633 
z"/>
<path fill="#AAB0BA" opacity="1.000000" stroke="none" 
	d="
M341.898499,219.629089 
	C331.596985,219.864380 321.296204,219.915756 310.496277,219.690643 
	C309.997192,219.414154 309.941681,218.953369 309.941681,218.953369 
	C320.315918,218.944107 330.690186,218.934830 341.526123,219.006866 
	C341.987823,219.088196 341.899200,219.445175 341.898499,219.629089 
z"/>
<path fill="#AAB0BA" opacity="1.000000" stroke="none" 
	d="
M201.923859,219.863144 
	C191.934464,219.916031 181.945053,219.968903 171.424377,219.699829 
	C170.918671,219.183365 170.944275,218.988815 170.969879,218.794281 
	C181.002762,218.823242 191.035660,218.852219 201.517746,219.154083 
	C201.966949,219.426987 201.923859,219.863144 201.923859,219.863144 
z"/>
<path fill="#000000" opacity="1.000000" stroke="none" 
	d="
M185.242432,241.921448 
	C186.406219,240.075043 187.914917,238.149857 189.708481,236.018707 
	C188.524689,237.822708 187.056030,239.832687 185.242432,241.921448 
z"/>
<path fill="#000000" opacity="1.000000" stroke="none" 
	d="
M177.169266,250.939117 
	C178.303802,248.966721 179.797073,246.936737 181.635681,244.801422 
	C180.496689,246.757904 179.012360,248.819717 177.169266,250.939117 
z"/>
<path fill="#000000" opacity="1.000000" stroke="none" 
	d="
M170.201126,258.918365 
	C171.375931,257.049744 172.900497,255.099045 174.706390,252.929245 
	C173.508759,254.752197 172.029831,256.794220 170.201126,258.918365 
z"/>
<path fill="#AAB0BA" opacity="1.000000" stroke="none" 
	d="
M168.946365,219.918304 
	C164.300049,219.939926 159.653748,219.961533 154.550262,219.932663 
	C154.583572,219.582870 155.074036,219.283569 155.842010,218.868958 
	C160.111954,218.780365 164.104370,218.807083 168.574265,219.107071 
	C169.016602,219.559662 168.981476,219.738983 168.946365,219.918304 
z"/>
<path fill="#000000" opacity="1.000000" stroke="none" 
	d="
M198.264801,226.925659 
	C199.395569,225.059723 200.869446,223.114853 202.659729,221.054474 
	C201.520065,222.908218 200.063980,224.877457 198.264801,226.925659 
z"/>
<path fill="#000000" opacity="1.000000" stroke="none" 
	d="
M193.501312,231.894073 
	C194.580215,230.345657 196.010147,228.802322 197.718903,227.091568 
	C196.615936,228.582504 195.234146,230.240829 193.501312,231.894073 
z"/>
<path fill="#000000" opacity="1.000000" stroke="none" 
	d="
M165.230865,264.909058 
	C165.738892,263.721985 166.599243,262.443024 167.724838,260.954407 
	C167.187790,262.102264 166.385498,263.459717 165.230865,264.909058 
z"/>
<path fill="#000000" opacity="1.000000" stroke="none" 
	d="
M160.260529,270.903259 
	C160.762283,269.737183 161.605286,268.464630 162.720673,266.992615 
	C162.195953,268.127716 161.398880,269.462250 160.260529,270.903259 
z"/>
<path fill="#000000" opacity="1.000000" stroke="none" 
	d="
M202.154465,219.995789 
	C201.923859,219.863144 201.966949,219.426987 201.983917,219.208466 
	C202.699310,219.028839 203.397751,219.067719 204.096191,219.106598 
	C203.894302,219.727463 203.692413,220.348312 203.208893,220.975296 
	C202.746552,220.697098 202.565811,220.412766 202.154465,219.995789 
z"/>
<path fill="#000000" opacity="1.000000" stroke="none" 
	d="
M310.973083,223.298920 
	C311.705750,223.742233 312.367798,224.540543 313.104370,225.667969 
	C312.420013,225.216019 311.661224,224.434967 310.973083,223.298920 
z"/>
<path fill="#000000" opacity="1.000000" stroke="none" 
	d="
M309.634460,218.924377 
	C309.941681,218.953369 309.997192,219.414154 310.034241,219.643250 
	C309.781982,220.071411 309.492706,220.270493 309.137360,220.725220 
	C308.613281,220.692932 308.155273,220.404984 307.697266,220.117004 
	C308.240570,219.709793 308.783905,219.302582 309.634460,218.924377 
z"/>
<path fill="#000000" opacity="1.000000" stroke="none" 
	d="
M169.287811,220.006393 
	C168.981476,219.738983 169.016602,219.559662 169.037842,219.106567 
	C169.561752,218.714417 170.099548,218.596024 170.803619,218.635956 
	C170.944275,218.988815 170.918671,219.183365 170.958313,219.664871 
	C170.558777,219.999390 170.094025,220.046936 169.287811,220.006393 
z"/>
<path fill="#000000" opacity="1.000000" stroke="none" 
	d="
M360.178467,277.817810 
	C360.168213,277.684265 360.386505,277.363586 360.807526,276.827515 
	C360.809204,276.951630 360.608124,277.291138 360.178467,277.817810 
z"/>
<path fill="#000000" opacity="1.000000" stroke="none" 
	d="
M310.055603,222.222580 
	C310.322479,222.107498 310.628571,222.274963 310.997986,222.707214 
	C310.739166,222.816391 310.416962,222.660751 310.055603,222.222580 
z"/>
<path fill="#000000" opacity="1.000000" stroke="none" 
	d="
M309.069122,221.210358 
	C309.310516,221.115723 309.614227,221.289581 309.988953,221.725967 
	C309.750427,221.818588 309.440948,221.648712 309.069122,221.210358 
z"/>
</svg>
